<svg width="88" height="55" viewBox="0 0 88 55" fill="none" xmlns="http://www.w3.org/2000/svg">
<g clip-path="url(#clip0_5_1042)">
<path d="M22.1508 22.4003L0.269353 52.8031C-0.402428 53.7181 0.259409 55.0011 1.40409 55.0011H11.9636C12.8907 55.0011 13.7591 54.549 14.2828 53.7913L25.6722 35.8863L37.0062 53.8066C37.5311 54.5545 38.3929 55 39.3144 55H49.9745C51.117 55 51.7788 53.7214 51.1103 52.8053L33.1932 26.5593L50.9976 2.19472C51.6672 1.27861 51.0043 0 49.8618 0H40.0768C39.1575 0 38.2957 0.445494 37.7708 1.19126L22.1508 22.4003Z" fill="#1D1D1D"/>
<path d="M14.1648 1.17161C13.6377 0.436759 12.7837 0 11.8732 0H1.41863C0.279476 0 -0.383465 1.27315 0.279476 2.18926L17.6231 25.6323L24.7133 15.5432L14.1648 1.17161Z" fill="#1D1D1D"/>
<path d="M54.3777 18.1271V52.9925C54.3777 54.1019 55.287 55.0005 56.4096 55.0005H65.2256C66.3482 55.0005 67.2575 54.1019 67.2575 52.9925V2.00855C67.2575 1.53357 67.0896 1.09681 66.81 0.752865L54.3777 18.1271Z" fill="#1D1D1D"/>
<path d="M56.4096 0.000545502C55.287 0.000545502 54.3777 0.899178 54.3777 2.00855V15.1484L65.2168 0.000545502H56.4096Z" fill="#1D1D1D"/>
<path d="M76.0809 16.1532C77.5073 16.1521 78.8365 16.1477 80.1657 16.1499C81.875 16.1521 83.5843 16.1598 85.2935 16.1619C85.8493 16.1619 86.4062 16.1543 86.963 16.1423C87.1487 16.139 87.2846 16.1598 87.2835 16.3901C87.2768 17.7026 87.279 19.014 87.2768 20.3264C87.2768 20.369 87.2581 20.4127 87.2371 20.5066C86.5918 20.5132 85.951 20.5252 85.3123 20.5263C84.0792 20.5284 82.8473 20.5252 81.6153 20.523C79.895 20.5197 78.1747 20.5131 76.4543 20.5142C74.955 20.5142 73.4545 20.5252 71.9552 20.5306C71.4557 20.5317 70.9541 20.5372 70.458 20.5208C70.384 20.5186 70.2724 20.4138 70.2724 20.3428C70.2613 18.9998 70.258 17.6546 70.2746 16.3072C70.2757 16.2056 70.4238 16.0549 70.5343 15.9741C72.722 14.3789 74.9152 12.7902 77.1062 11.2004C77.5205 10.9001 77.9338 10.5987 78.3912 10.2657C77.9327 9.93375 77.4974 9.61819 77.0631 9.30372C74.8699 7.7172 72.6767 6.13176 70.489 4.53868C70.384 4.46225 70.2746 4.32139 70.2735 4.19473C70.258 2.86262 70.2647 1.52832 70.2658 0.194018C70.2658 0.162353 70.2779 0.128505 70.2967 0.0346014C70.732 0.0269581 71.1707 0.0116715 71.6071 0.0116715C72.8391 0.00948772 74.071 0.0138553 75.303 0.0160391C77.0344 0.0193148 78.7658 0.0258662 80.4983 0.0247743C82.3191 0.0225905 84.1422 0.0127634 85.9642 0.00621203C86.3089 0.00512013 86.6526 0.00621203 86.9973 0.00184444C87.1741 -0.000339359 87.2868 0.0422447 87.2857 0.249705C87.279 1.56217 87.2802 2.87354 87.2768 4.186C87.2768 4.22858 87.2581 4.27335 87.2337 4.37708C83.5599 4.37926 79.8917 4.38254 76.2245 4.38472C76.2112 4.40656 76.1969 4.42949 76.1836 4.45133C78.842 6.37416 81.4993 8.29809 84.2085 10.258C81.5026 12.2224 78.8365 14.1572 76.0831 16.1565L76.0809 16.1532Z" fill="#1D1D1D"/>
<path d="M70.2625 31.0107C70.2625 29.5104 70.2558 28.0112 70.2636 26.5099C70.2757 24.2311 72.0624 22.4349 74.344 22.4174C76.1207 22.4043 77.8951 22.4131 79.6696 22.4174C80.9115 22.4207 82.1634 22.3781 83.392 22.4524C85.5985 22.5856 87.1774 24.1645 87.2305 26.3788C87.3012 29.3455 87.2702 32.3275 87.2724 35.3051C87.2724 35.613 87.2205 35.9318 87.1642 36.2441C86.7686 38.4443 85.0008 39.5919 83.1125 39.6279C81.5667 39.6574 80.0265 39.6377 78.4841 39.6345C77.0643 39.6312 75.6422 39.6421 74.2269 39.6104C72.0137 39.5613 70.2735 37.764 70.2625 35.5453C70.2558 34.0352 70.2614 32.5229 70.2614 31.0117L70.2625 31.0107ZM83.7743 31.062C83.7898 31.0598 83.8053 31.0576 83.8207 31.0554C83.8207 30.4221 83.8318 29.7866 83.8152 29.1555C83.8086 28.8825 83.7843 28.6008 83.7025 28.3519C83.3434 27.2556 82.4761 26.7883 81.3369 26.7708C79.5647 26.7435 77.7835 26.7654 76.0036 26.7981C74.8313 26.82 73.7208 27.5941 73.7131 28.9055C73.7043 30.3948 73.7197 31.8809 73.7385 33.367C73.7407 33.5493 73.8015 33.7317 73.8733 33.8933C74.3407 34.9546 75.2898 35.2756 76.4267 35.28C77.525 35.2843 78.6255 35.2734 79.7271 35.2549C80.4939 35.2418 81.2629 35.2516 82.033 35.1621C82.9501 35.0561 83.6848 34.3213 83.76 33.4259C83.8263 32.6343 83.7743 31.8503 83.7743 31.062Z" fill="#1D1D1D"/>
<path d="M87.2504 39.8834C87.2636 40.0614 87.2802 40.175 87.2802 40.2918C87.2813 43.692 87.2868 47.0921 87.278 50.4934C87.2758 51.4761 87.0858 52.4424 86.4405 53.3247C85.8019 54.1982 84.9422 54.7311 83.9511 54.8643C83.0142 54.9898 82.0761 54.9767 81.1425 54.9898C79.9083 55.0062 78.6774 54.9997 77.4477 54.9833C76.198 54.9669 74.9307 55.0106 73.7076 54.8785C71.7265 54.6655 70.2736 52.9382 70.2647 50.9214C70.2526 47.7899 70.2592 44.6539 70.2603 41.5202C70.2603 41.4252 70.2736 41.3291 70.2857 41.1675C70.805 41.4547 71.279 41.7167 71.7519 41.9799C72.3209 42.2965 72.8977 42.6033 73.4524 42.9407C73.5706 43.0128 73.6711 43.1919 73.6733 43.3371C73.6932 44.9564 73.701 46.5779 73.6921 48.2015C73.6833 49.9507 74.9429 50.6353 76.4025 50.6288C77.6576 50.6233 78.9106 50.6299 80.1669 50.619C80.7105 50.6135 81.2585 50.6135 81.8054 50.5458C83.0915 50.3875 83.8163 49.5653 83.8197 48.2976C83.8241 46.5527 83.8252 44.8068 83.8152 43.0641C83.8141 42.8261 83.8893 42.6689 84.087 42.5073C85.0196 41.7407 85.9433 40.96 86.8703 40.1859C86.9764 40.0974 87.0869 40.0134 87.2515 39.8823L87.2504 39.8834Z" fill="#1D1D1D"/>
</g>
<defs>
<clipPath id="clip0_5_1042">
<rect width="87.2857" height="55.0011" fill="white"/>
</clipPath>
</defs>
</svg>
