<svg width="44" height="44" viewBox="0 0 44 44" fill="none" xmlns="http://www.w3.org/2000/svg">
<g clip-path="url(#clip0_5_2109)">
<path d="M9.1665 16.5C9.1665 13.0964 10.5186 9.8322 12.9253 7.42548C15.332 5.01877 18.5962 3.66669 21.9998 3.66669C25.4035 3.66669 28.6677 5.01877 31.0744 7.42548C33.4811 9.8322 34.8332 13.0964 34.8332 16.5V18.3975C37.9425 18.843 40.3332 21.5179 40.3332 24.75V25.2084C40.3332 28.4625 37.5263 31.3152 34.2245 31.163C32.8678 35.0497 29.4175 37.6695 25.694 38.3332C24.8323 38.6485 23.813 38.5 22.9165 38.5C22.1872 38.5 21.4877 38.2103 20.972 37.6946C20.4562 37.1788 20.1665 36.4794 20.1665 35.75C20.1665 35.0207 20.4562 34.3212 20.972 33.8055C21.4877 33.2898 22.1872 33 22.9165 33C24.3703 33 25.98 32.7892 26.9627 34.1165C29.3387 32.9854 31.1665 30.5965 31.1665 27.5V16.5C31.1665 14.0689 30.2007 11.7373 28.4816 10.0182C26.7626 8.29912 24.431 7.33335 21.9998 7.33335C19.5687 7.33335 17.2371 8.29912 15.518 10.0182C13.7989 11.7373 12.8332 14.0689 12.8332 16.5V27.9584C12.8332 28.8093 12.4952 29.6253 11.8935 30.227C11.2918 30.8287 10.4757 31.1667 9.62484 31.1667C8.04459 31.1667 6.52906 30.5389 5.41166 29.4215C4.29426 28.3041 3.6665 26.7886 3.6665 25.2084V24.75C3.66611 23.2068 4.22193 21.715 5.23209 20.5483C6.24225 19.3816 7.63906 18.618 9.1665 18.3975V16.5Z" fill="#51B3D8"/>
<g clip-path="url(#clip1_5_2109)">
<path d="M24.6667 22.6666C25.5256 22.6667 26.3514 22.9983 26.9719 23.5924C27.5923 24.1865 27.9594 24.9971 27.9967 25.8553L28 26V26.6666C28.0001 27.003 27.8731 27.327 27.6443 27.5737C27.4156 27.8203 27.1021 27.9714 26.7667 27.9966L26.6667 28H17.3333C16.9969 28.0001 16.673 27.873 16.4263 27.6443C16.1796 27.4156 16.0286 27.1021 16.0033 26.7666L16 26.6666V26C16 25.141 16.3317 24.3152 16.9258 23.6948C17.5199 23.0744 18.3305 22.7072 19.1887 22.67L19.3333 22.6666H24.6667ZM22 14.6666C22.8841 14.6666 23.7319 15.0178 24.357 15.6429C24.9821 16.2681 25.3333 17.1159 25.3333 18C25.3333 18.884 24.9821 19.7319 24.357 20.357C23.7319 20.9821 22.8841 21.3333 22 21.3333C21.1159 21.3333 20.2681 20.9821 19.643 20.357C19.0179 19.7319 18.6667 18.884 18.6667 18C18.6667 17.1159 19.0179 16.2681 19.643 15.6429C20.2681 15.0178 21.1159 14.6666 22 14.6666Z" fill="#51B3D8"/>
</g>
</g>
<defs>
<clipPath id="clip0_5_2109">
<rect width="44" height="44" fill="white"/>
</clipPath>
<clipPath id="clip1_5_2109">
<rect width="16" height="16" fill="white" transform="translate(14 13.3333)"/>
</clipPath>
</defs>
</svg>
