<svg width="44" height="44" viewBox="0 0 44 44" fill="none" xmlns="http://www.w3.org/2000/svg">
<g clip-path="url(#clip0_5_2127)">
<path d="M23.8332 23.8333C25.7781 23.8333 27.6434 24.6059 29.0186 25.9812C30.3939 27.3565 31.1665 29.2217 31.1665 31.1667V33.9167C31.1665 34.646 30.8768 35.3455 30.361 35.8612C29.8453 36.3769 29.1458 36.6667 28.4165 36.6667H6.4165C5.68716 36.6667 4.98769 36.3769 4.47196 35.8612C3.95624 35.3455 3.6665 34.646 3.6665 33.9167V31.1667C3.6665 29.2217 4.43912 27.3565 5.81439 25.9812C7.18965 24.6059 9.05492 23.8333 10.9998 23.8333H23.8332ZM34.8332 23.8333C36.2919 23.8333 37.6908 24.4128 38.7223 25.4442C39.7537 26.4757 40.3332 27.8746 40.3332 29.3333V32.0833C40.3332 32.8127 40.0434 33.5121 39.5277 34.0279C39.012 34.5436 38.3125 34.8333 37.5832 34.8333H34.8332V31.1667C34.8343 29.7434 34.5035 28.3395 33.867 27.0664C33.2305 25.7934 32.3058 24.6864 31.1665 23.8333H34.8332ZM17.4165 5.5C19.6045 5.5 21.703 6.36919 23.2501 7.91637C24.7973 9.46354 25.6665 11.562 25.6665 13.75C25.6665 15.938 24.7973 18.0365 23.2501 19.5836C21.703 21.1308 19.6045 22 17.4165 22C15.2285 22 13.13 21.1308 11.5829 19.5836C10.0357 18.0365 9.1665 15.938 9.1665 13.75C9.1665 11.562 10.0357 9.46354 11.5829 7.91637C13.13 6.36919 15.2285 5.5 17.4165 5.5ZM32.9998 11C34.4585 11 35.8575 11.5795 36.8889 12.6109C37.9204 13.6424 38.4998 15.0413 38.4998 16.5C38.4998 17.9587 37.9204 19.3576 36.8889 20.3891C35.8575 21.4205 34.4585 22 32.9998 22C31.5411 22 30.1422 21.4205 29.1108 20.3891C28.0793 19.3576 27.4998 17.9587 27.4998 16.5C27.4998 15.0413 28.0793 13.6424 29.1108 12.6109C30.1422 11.5795 31.5411 11 32.9998 11Z" fill="#F1836A"/>
</g>
<defs>
<clipPath id="clip0_5_2127">
<rect width="44" height="44" fill="white"/>
</clipPath>
</defs>
</svg>
