<svg width="44" height="44" viewBox="0 0 44 44" fill="none" xmlns="http://www.w3.org/2000/svg">
<g clip-path="url(#clip0_5_2134)">
<path d="M21.9998 3.66669C23.6425 3.66669 25.2338 3.88302 26.7482 4.28819L22.8505 8.18402C22.5548 8.4809 22.294 8.81059 22.0732 9.16669H21.9998C19.4616 9.16669 16.9805 9.91935 14.87 11.3295C12.7596 12.7396 11.1147 14.7439 10.1434 17.0889C9.17206 19.4339 8.91792 22.0143 9.41309 24.5037C9.90827 26.9931 11.1305 29.2798 12.9253 31.0746C14.7201 32.8693 17.0068 34.0916 19.4962 34.5868C21.9856 35.0819 24.566 34.8278 26.9109 33.8565C29.2559 32.8852 31.2602 31.2403 32.6704 29.1298C34.0805 27.0194 34.8332 24.5382 34.8332 22V21.9267C35.1852 21.7067 35.5152 21.4482 35.814 21.1475L39.7117 17.2517C40.1168 18.766 40.3332 20.3574 40.3332 22C40.3332 32.1255 32.1253 40.3334 21.9998 40.3334C11.8743 40.3334 3.6665 32.1255 3.6665 22C3.6665 11.8745 11.8743 3.66669 21.9998 3.66669ZM21.2408 12.8645C21.2408 14.4247 21.1638 16.0069 21.2482 17.5652L20.2582 18.5552C19.9176 18.8957 19.6475 19.3 19.4632 19.745C19.2789 20.1899 19.184 20.6668 19.184 21.1484C19.184 21.63 19.2789 22.1069 19.4632 22.5519C19.6475 22.9968 19.9176 23.4011 20.2582 23.7417C20.5987 24.0822 21.003 24.3524 21.448 24.5367C21.8929 24.721 22.3698 24.8158 22.8514 24.8158C23.333 24.8158 23.8099 24.721 24.2549 24.5367C24.6998 24.3524 25.1041 24.0822 25.4447 23.7417L26.4347 22.7517C27.993 22.836 29.5733 22.759 31.1353 22.759C30.9905 24.5013 30.3505 26.1659 29.2907 27.5563C28.2309 28.9468 26.7956 30.0052 25.154 30.6067C23.5125 31.2082 21.7331 31.3278 20.0258 30.9512C18.3186 30.5747 16.7546 29.7177 15.5184 28.4815C14.2821 27.2453 13.4252 25.6813 13.0487 23.974C12.6721 22.2667 12.7916 20.4874 13.3931 18.8458C13.9947 17.2043 15.0531 15.769 16.4435 14.7092C17.834 13.6494 19.4985 13.0093 21.2408 12.8645ZM33.9238 3.89952C34.2585 4.03827 34.5445 4.27304 34.7458 4.5742C34.9471 4.87537 35.0547 5.22943 35.055 5.59169V8.94669H38.4082C38.7707 8.94676 39.1251 9.05433 39.4265 9.25578C39.7279 9.45724 39.9629 9.74354 40.1016 10.0785C40.2403 10.4134 40.2766 10.782 40.2059 11.1376C40.1352 11.4932 39.9607 11.8198 39.7043 12.0762L33.2198 18.5534C32.8761 18.8972 32.4099 19.0904 31.9237 19.0905H27.4998L24.1485 22.4437C23.8045 22.7877 23.3379 22.981 22.8514 22.981C22.3649 22.981 21.8983 22.7877 21.5543 22.4437C21.2103 22.0997 21.0171 21.6331 21.0171 21.1466C21.0171 20.6601 21.2103 20.1935 21.5543 19.8495L24.9075 16.5V12.0744C24.9073 11.8333 24.9547 11.5946 25.0468 11.3719C25.139 11.1491 25.2742 10.9468 25.4447 10.7764L31.9255 4.29552C32.1819 4.03898 32.5086 3.86424 32.8643 3.79343C33.22 3.72261 33.5888 3.75889 33.9238 3.89769" fill="#6863BF"/>
</g>
<defs>
<clipPath id="clip0_5_2134">
<rect width="44" height="44" fill="white"/>
</clipPath>
</defs>
</svg>
