<svg width="18" height="21" viewBox="0 0 18 21" fill="none" xmlns="http://www.w3.org/2000/svg">
<path d="M5.81773 16.1514C7.24416 16.1503 8.57335 16.146 9.90255 16.1482C11.6118 16.1503 13.3211 16.158 15.0304 16.1602C15.5862 16.1602 16.143 16.1525 16.6999 16.1405C16.8855 16.1372 17.0214 16.158 17.0203 16.3884C17.0137 17.7008 17.0159 19.0122 17.0137 20.3247C17.0137 20.3673 16.9949 20.4109 16.9739 20.5048C16.3287 20.5114 15.6878 20.5234 15.0492 20.5245C13.8161 20.5267 12.5841 20.5234 11.3522 20.5212C9.63185 20.5179 7.91152 20.5114 6.19119 20.5125C4.69183 20.5125 3.19137 20.5234 1.69202 20.5289C1.1926 20.5299 0.69098 20.5354 0.194879 20.519C0.120851 20.5168 0.00925658 20.412 0.00925658 20.341C-0.00179245 18.998 -0.00510499 17.6528 0.0114685 16.3054C0.0125734 16.2038 0.160628 16.0532 0.271118 15.9724C2.45882 14.3771 4.65205 12.7884 6.84307 11.1986C7.25741 10.8983 7.67065 10.5969 8.12808 10.2639C7.66954 9.93198 7.23421 9.61642 6.79999 9.30196C4.60676 7.71543 2.41353 6.12999 0.22582 4.53692C0.120854 4.46048 0.0114675 4.31963 0.0103626 4.19297C-0.00510607 2.86085 0.00152253 1.52655 0.00262743 0.192252C0.00262743 0.160587 0.0147778 0.126738 0.0335612 0.0328352C0.468893 0.0251919 0.907544 0.00990532 1.34398 0.00990532C2.57595 0.00772152 3.80791 0.0120891 5.03987 0.0142729C6.77125 0.0175486 8.50264 0.0241 10.2351 0.0230081C12.056 0.0208243 13.8791 0.0109972 15.7011 0.00444583C16.0458 0.00335393 16.3894 0.00444582 16.7342 7.82326e-05C16.9109 -0.00210556 17.0236 0.0404785 17.0225 0.247939C17.0159 1.5604 17.017 2.87177 17.0137 4.18423C17.0137 4.22682 16.9949 4.27158 16.9706 4.37531C13.2968 4.3775 9.62853 4.38077 5.96136 4.38296C5.9481 4.4048 5.93374 4.42772 5.92048 4.44956C8.57888 6.3724 11.2362 8.29632 13.9454 10.2563C11.2395 12.2206 8.57336 14.1554 5.81994 16.1547L5.81773 16.1514Z" fill="#373552"/>
</svg>
