<svg width="18" height="18" viewBox="0 0 18 18" fill="none" xmlns="http://www.w3.org/2000/svg">
<path d="M0.00326112 8.60246C0.00326112 7.10219 -0.00336721 5.60301 0.0043671 4.10165C0.016521 1.82286 1.80315 0.0266897 4.08477 0.00921937C5.86145 -0.00388341 7.63593 0.00485178 9.4104 0.00921937C10.6523 0.0124951 11.9042 -0.0300898 13.1328 0.0441592C15.3393 0.177371 16.9182 1.75626 16.9712 3.97063C17.042 6.93731 17.011 9.91929 17.0132 12.8969C17.0132 13.2048 16.9613 13.5236 16.905 13.8359C16.5094 16.0361 14.7416 17.1837 12.8533 17.2197C11.3075 17.2492 9.76729 17.2295 8.22484 17.2263C6.80504 17.223 5.38303 17.2339 3.96765 17.2022C1.75453 17.1531 0.0143101 15.3558 0.00326112 13.1371C-0.00336829 11.627 0.00216189 10.1147 0.00216189 8.60355L0.00326112 8.60246ZM13.5151 8.65378C13.5306 8.65159 13.5461 8.64941 13.5615 8.64722C13.5615 8.01392 13.5726 7.37844 13.556 6.74732C13.5494 6.47435 13.5251 6.19264 13.4433 5.94369C13.0842 4.84742 12.2169 4.38009 11.0777 4.36262C9.30544 4.33532 7.52433 4.35716 5.74434 4.38991C4.57203 4.41175 3.46161 5.18591 3.45388 6.49728C3.44504 7.98663 3.4605 9.4727 3.47929 10.9588C3.4815 11.1411 3.54227 11.3235 3.61409 11.4851C4.08146 12.5464 5.03057 12.8674 6.16751 12.8718C7.26579 12.8761 8.36627 12.8652 9.46786 12.8467C10.2347 12.8336 11.0037 12.8434 11.7738 12.7539C12.6909 12.6479 13.4256 11.9131 13.5008 11.0177C13.567 10.2261 13.5151 9.44213 13.5151 8.65378Z" fill="#373552"/>
</svg>
