<svg width="52" height="55" viewBox="0 0 52 55" fill="none" xmlns="http://www.w3.org/2000/svg">
<path d="M22.1508 22.4003L0.269353 52.8031C-0.402428 53.7181 0.259409 55.0011 1.40409 55.0011H11.9636C12.8907 55.0011 13.7591 54.549 14.2828 53.7913L25.6722 35.8863L37.0062 53.8066C37.5311 54.5545 38.3929 55 39.3144 55H49.9745C51.117 55 51.7788 53.7214 51.1103 52.8053L33.1932 26.5593L50.9976 2.19472C51.6672 1.27861 51.0043 0 49.8618 0H40.0768C39.1575 0 38.2957 0.445494 37.7708 1.19126L22.1508 22.4003Z" fill="#373552"/>
<path d="M14.1648 1.17161C13.6378 0.436759 12.7837 0 11.8733 0H1.41869C0.279537 0 -0.383404 1.27315 0.279537 2.18926L17.6232 25.6323L24.7133 15.5432L14.1648 1.17161Z" fill="#373552"/>
</svg>
