<svg width="18" height="16" viewBox="0 0 18 16" fill="none" xmlns="http://www.w3.org/2000/svg">
<path d="M16.9929 0.00109296C17.0061 0.179072 17.0227 0.292629 17.0227 0.409462C17.0238 3.80963 17.0293 7.20981 17.0205 10.6111C17.0183 11.5938 16.8282 12.5601 16.183 13.4424C15.5444 14.3159 14.6847 14.8487 13.6936 14.9819C12.7567 15.1075 11.8186 15.0944 10.885 15.1075C9.6508 15.1239 8.41994 15.1173 7.19018 15.101C5.94054 15.0846 4.67322 15.1282 3.45009 14.9961C1.469 14.7832 0.016053 13.0558 0.00721374 11.0391C-0.00494019 7.90753 0.00169165 4.77159 0.00279656 1.63785C0.00279656 1.54285 0.0160532 1.44677 0.0282071 1.28517C0.547511 1.57234 1.02152 1.83439 1.49441 2.09754C2.06344 2.41419 2.64019 2.72101 3.19485 3.05841C3.31308 3.13047 3.41362 3.30954 3.41583 3.45477C3.43572 5.07405 3.44346 6.69552 3.43462 8.31917C3.42578 10.0684 4.68537 10.753 6.14494 10.7465C7.40011 10.741 8.65307 10.7476 9.90935 10.7366C10.453 10.7312 11.001 10.7312 11.5479 10.6635C12.834 10.5052 13.5588 9.68295 13.5622 8.41526C13.5666 6.67041 13.5677 4.92446 13.5577 3.18179C13.5566 2.94376 13.6318 2.78652 13.8295 2.62492C14.7621 1.85841 15.6858 1.0777 16.6128 0.303548C16.7189 0.215104 16.8293 0.131028 16.994 0L16.9929 0.00109296Z" fill="#1D1D1D"/>
</svg>
