<svg width="18" height="55" viewBox="0 0 18 55" fill="none" xmlns="http://www.w3.org/2000/svg">
<path d="M5.82334 16.1514C7.24977 16.1503 8.57897 16.146 9.90816 16.1482C11.6174 16.1503 13.3267 16.158 15.036 16.1602C15.5918 16.1602 16.1487 16.1525 16.7055 16.1405C16.8911 16.1372 17.0271 16.158 17.0259 16.3884C17.0193 17.7008 17.0215 19.0122 17.0193 20.3247C17.0193 20.3673 17.0005 20.4109 16.9795 20.5048C16.3343 20.5114 15.6934 20.5234 15.0548 20.5245C13.8217 20.5267 12.5898 20.5234 11.3578 20.5212C9.63746 20.5179 7.91713 20.5114 6.1968 20.5125C4.69745 20.5125 3.19699 20.5234 1.69764 20.5289C1.19822 20.5299 0.696596 20.5354 0.200495 20.519C0.126466 20.5168 0.0148718 20.412 0.0148718 20.341C0.00382279 18.998 0.00051024 17.6528 0.0170838 16.3054C0.0181887 16.2038 0.166243 16.0532 0.276733 15.9724C2.46444 14.3771 4.65767 12.7884 6.84869 11.1986C7.26303 10.8983 7.67626 10.5969 8.13369 10.2639C7.67516 9.93198 7.23983 9.61642 6.8056 9.30196C4.61237 7.71543 2.41914 6.12999 0.231435 4.53692C0.126469 4.46048 0.0170827 4.31963 0.0159778 4.19297C0.000509162 2.86085 0.00713776 1.52655 0.00824267 0.192252C0.00824267 0.160587 0.0203931 0.126738 0.0391764 0.0328352C0.474508 0.0251919 0.913159 0.00990532 1.3496 0.00990532C2.58156 0.00772152 3.81352 0.0120891 5.04549 0.0142729C6.77687 0.0175486 8.50825 0.0241 10.2407 0.0230081C12.0616 0.0208243 13.8847 0.0109972 15.7067 0.00444583C16.0514 0.00335393 16.395 0.00444582 16.7398 7.82326e-05C16.9166 -0.00210556 17.0293 0.0404785 17.0282 0.247939C17.0215 1.5604 17.0226 2.87177 17.0193 4.18423C17.0193 4.22682 17.0005 4.27158 16.9762 4.37531C13.3024 4.3775 9.63415 4.38077 5.96698 4.38296C5.95372 4.4048 5.93936 4.42772 5.9261 4.44956C8.58449 6.3724 11.2418 8.29632 13.951 10.2563C11.2451 12.2206 8.57897 14.1554 5.82555 16.1547L5.82334 16.1514Z" fill="#1D1D1D"/>
<path d="M0.00497011 31.0089C0.00497011 29.5086 -0.00165823 28.0094 0.00607609 26.5081C0.01823 24.2293 1.80486 22.4331 4.08648 22.4157C5.86316 22.4025 7.63764 22.4113 9.41211 22.4157C10.654 22.4189 11.9059 22.3763 13.1345 22.4506C15.341 22.5838 16.9199 24.1627 16.973 26.3771C17.0437 29.3437 17.0127 32.3257 17.0149 35.3033C17.0149 35.6112 16.963 35.9301 16.9067 36.2424C16.5111 38.4425 14.7433 39.5901 12.855 39.6262C11.3092 39.6556 9.76899 39.636 8.22655 39.6327C6.80675 39.6294 5.38474 39.6403 3.96936 39.6087C1.75624 39.5595 0.0160191 37.7623 0.00497011 35.5435C-0.00165931 34.0334 0.00387087 32.5212 0.00387087 31.01L0.00497011 31.0089ZM13.5168 31.0602C13.5323 31.058 13.5478 31.0558 13.5632 31.0537C13.5632 30.4204 13.5743 29.7849 13.5577 29.1538C13.5511 28.8808 13.5268 28.5991 13.445 28.3501C13.0859 27.2539 12.2186 26.7865 11.0794 26.7691C9.30715 26.7418 7.52604 26.7636 5.74604 26.7963C4.57374 26.8182 3.46332 27.5923 3.45558 28.9037C3.44674 30.3931 3.46221 31.8791 3.48099 33.3652C3.4832 33.5476 3.54398 33.7299 3.6158 33.8915C4.08317 34.9528 5.03228 35.2738 6.16922 35.2782C7.2675 35.2826 8.36798 35.2717 9.46957 35.2531C10.2364 35.24 11.0054 35.2498 11.7755 35.1603C12.6926 35.0544 13.4273 34.3195 13.5025 33.4242C13.5688 32.6325 13.5168 31.8486 13.5168 31.0602Z" fill="#1D1D1D"/>
<path d="M16.9929 39.8817C17.0061 40.0596 17.0227 40.1732 17.0227 40.29C17.0238 43.6902 17.0293 47.0904 17.0205 50.4916C17.0183 51.4743 16.8282 52.4407 16.183 53.3229C15.5444 54.1964 14.6847 54.7293 13.6936 54.8625C12.7567 54.9881 11.8186 54.975 10.885 54.9881C9.6508 55.0045 8.41994 54.9979 7.19018 54.9815C5.94054 54.9651 4.67322 55.0088 3.45009 54.8767C1.469 54.6638 0.016053 52.9364 0.00721374 50.9197C-0.00494019 47.7881 0.00169165 44.6522 0.00279656 41.5184C0.00279656 41.4234 0.0160532 41.3273 0.0282071 41.1657C0.547511 41.4529 1.02152 41.715 1.49441 41.9781C2.06344 42.2948 2.64019 42.6016 3.19485 42.939C3.31308 43.011 3.41362 43.1901 3.41583 43.3353C3.43572 44.9546 3.44346 46.5761 3.43462 48.1997C3.42578 49.949 4.68537 50.6336 6.14494 50.627C7.40011 50.6216 8.65307 50.6281 9.90935 50.6172C10.453 50.6117 11.001 50.6117 11.5479 50.544C12.834 50.3857 13.5588 49.5635 13.5622 48.2958C13.5666 46.551 13.5677 44.805 13.5577 43.0624C13.5566 42.8243 13.6318 42.6671 13.8295 42.5055C14.7621 41.739 15.6858 40.9583 16.6128 40.1841C16.7189 40.0957 16.8293 40.0116 16.994 39.8806L16.9929 39.8817Z" fill="#1D1D1D"/>
</svg>
