<svg width="1277" height="532" viewBox="0 0 1277 532" fill="none" xmlns="http://www.w3.org/2000/svg">
<g opacity="0.35" clip-path="url(#clip0_5_481)">
<path d="M162.876 63.9867C168.174 56.8113 167.575 46.6478 161.076 40.1492C153.917 32.9894 142.309 32.9894 135.149 40.1492C127.989 47.309 127.989 58.9166 135.149 66.0764C141.648 72.5751 151.813 73.1753 158.987 67.8758L150.057 58.9464L148.113 60.891C147.597 61.4067 146.898 61.6964 146.168 61.6964C145.439 61.6964 144.739 61.4067 144.224 60.891C143.708 60.3752 143.418 59.6758 143.418 58.9464C143.418 58.2171 143.708 57.5176 144.224 57.0019L146.168 55.0573L143.575 52.4646C142.372 51.2613 141.696 49.6291 141.696 47.9273C141.696 46.2255 142.372 44.5934 143.575 43.3901L144.224 42.7419C144.739 42.2262 145.439 41.9364 146.168 41.9364C146.898 41.9364 147.597 42.2262 148.113 42.7419C148.628 43.2576 148.918 43.9571 148.918 44.6864C148.918 45.4158 148.628 46.1153 148.113 46.631L147.465 47.2792C147.293 47.4511 147.196 47.6842 147.196 47.9273C147.196 48.1705 147.293 48.4036 147.465 48.5755L150.057 51.1682L152.002 49.2237C152.518 48.708 153.217 48.4182 153.946 48.4183C154.676 48.4182 155.375 48.708 155.891 49.2237C156.407 49.7394 156.696 50.4389 156.696 51.1683C156.696 51.8976 156.407 52.5971 155.891 53.1128L153.946 55.0573L162.876 63.9867Z" fill="#51B3D8"/>
</g>
<g opacity="0.35" clip-path="url(#clip1_5_481)">
<path d="M888.647 213.545C888.631 213.305 888.567 213.07 888.461 212.855C888.354 212.639 888.206 212.446 888.024 212.288C887.843 212.129 887.632 212.008 887.404 211.931C887.176 211.854 886.935 211.822 886.695 211.838C886.454 211.854 886.219 211.918 886.004 212.024C885.788 212.131 885.595 212.279 885.437 212.461C885.278 212.642 885.157 212.853 885.08 213.081C885.003 213.309 884.971 213.55 884.987 213.791L885.934 227.986L872.816 226.112C872.534 226.072 872.247 226.098 871.977 226.188C871.707 226.278 871.461 226.43 871.26 226.631L866.075 231.816C865.834 232.057 865.665 232.36 865.587 232.692C865.508 233.023 865.524 233.37 865.632 233.693C865.739 234.016 865.935 234.302 866.196 234.52C866.458 234.738 866.775 234.88 867.112 234.928L886.582 237.708L887.58 252.681C887.596 252.922 887.659 253.156 887.766 253.372C887.873 253.588 888.021 253.781 888.202 253.939C888.384 254.098 888.595 254.219 888.823 254.296C889.051 254.373 889.292 254.405 889.532 254.389C889.773 254.373 890.007 254.309 890.223 254.203C890.439 254.096 890.632 253.947 890.79 253.766C890.949 253.585 891.07 253.374 891.147 253.146C891.224 252.918 891.256 252.677 891.24 252.436L890.292 238.24L903.41 240.113C903.692 240.153 903.979 240.127 904.249 240.037C904.519 239.947 904.764 239.796 904.965 239.595L910.151 234.409C910.392 234.168 910.561 233.865 910.639 233.534C910.717 233.203 910.701 232.856 910.594 232.533C910.486 232.21 910.291 231.923 910.029 231.705C909.768 231.487 909.451 231.346 909.114 231.298L889.644 228.517L888.647 213.545Z" fill="#570EF1"/>
</g>
<g opacity="0.35" clip-path="url(#clip2_5_481)">
<path fill-rule="evenodd" clip-rule="evenodd" d="M442.336 348.78C443.368 347.749 444.767 347.169 446.225 347.169C447.684 347.169 449.083 347.749 450.115 348.78L465.671 364.336C466.702 365.368 467.282 366.767 467.282 368.226C467.282 369.684 466.702 371.083 465.671 372.115L450.115 387.671C449.083 388.702 447.684 389.282 446.225 389.282C444.767 389.282 443.368 388.702 442.336 387.671L426.78 372.115C425.749 371.083 425.169 369.684 425.169 368.226C425.169 366.767 425.749 365.368 426.78 364.336L442.336 348.78ZM438.447 370.818C438.103 371.162 437.91 371.628 437.91 372.115C437.91 372.601 438.103 373.067 438.447 373.411L444.929 379.893C445.273 380.237 445.739 380.43 446.225 380.43C446.712 380.43 447.178 380.237 447.522 379.893C447.866 379.549 448.059 379.083 448.059 378.596C448.059 378.11 447.866 377.644 447.522 377.3L441.04 370.818C440.696 370.474 440.23 370.281 439.744 370.281C439.257 370.281 438.791 370.474 438.447 370.818ZM441.04 365.633C440.696 365.977 440.503 366.443 440.503 366.929C440.503 367.415 440.696 367.882 441.04 368.226L448.818 376.004C449.162 376.348 449.628 376.541 450.115 376.541C450.601 376.541 451.067 376.348 451.411 376.004C451.755 375.66 451.948 375.194 451.948 374.707C451.948 374.221 451.755 373.755 451.411 373.411L446.666 368.666C446.616 367.825 446.76 366.634 447.185 365.573C447.432 364.957 448.007 364.233 448.6 363.924C448.788 363.813 449.007 363.765 449.224 363.788C449.382 363.811 449.688 363.91 450.115 364.336L455.3 369.522C455.644 369.866 456.11 370.059 456.596 370.059C457.083 370.059 457.549 369.866 457.893 369.522C458.237 369.178 458.43 368.712 458.43 368.226C458.43 367.739 458.237 367.273 457.893 366.929L452.707 361.744C451.839 360.875 450.846 360.323 449.767 360.162C448.783 360.023 447.78 360.202 446.905 360.673C445.369 361.475 444.277 362.974 443.783 364.209C443.625 364.605 443.49 365.01 443.38 365.422C443.027 365.177 442.599 365.065 442.172 365.103C441.744 365.142 441.344 365.329 441.04 365.633ZM434.558 366.929C434.214 367.273 434.021 367.739 434.021 368.226C434.021 368.712 434.214 369.178 434.558 369.522C434.902 369.866 435.368 370.059 435.855 370.059C436.341 370.059 436.807 369.866 437.151 369.522C437.495 369.178 437.688 368.712 437.688 368.226C437.688 367.739 437.495 367.273 437.151 366.929C436.807 366.585 436.341 366.392 435.855 366.392C435.368 366.392 434.902 366.585 434.558 366.929Z" fill="#5ECCD9"/>
</g>
<g opacity="0.35" clip-path="url(#clip3_5_481)">
<path d="M1238.63 14.2601C1240.35 12.541 1242.68 11.5752 1245.11 11.5752C1247.54 11.5752 1249.88 12.541 1251.59 14.2601L1261.97 24.631C1263.68 26.3501 1264.65 28.6816 1264.65 31.1128C1264.65 33.5439 1263.68 35.8755 1261.97 37.5946L1251.59 47.9655C1249.88 49.6846 1247.54 50.6504 1245.11 50.6504C1242.68 50.6504 1240.35 49.6846 1238.63 47.9655L1228.26 37.5946C1226.54 35.8755 1225.58 33.5439 1225.58 31.1128C1225.58 28.6816 1226.54 26.3501 1228.26 24.631L1238.63 14.2601ZM1239.93 25.9273C1238.55 27.3026 1237.78 29.1679 1237.78 31.1128C1237.78 33.0577 1238.55 34.923 1239.93 36.2982C1241.3 37.6735 1243.17 38.4461 1245.11 38.4461C1247.06 38.4461 1248.92 37.6735 1250.3 36.2982C1251.67 34.923 1252.45 33.0577 1252.45 31.1128C1252.45 29.1679 1251.67 27.3026 1250.3 25.9273C1248.92 24.5521 1247.06 23.7795 1245.11 23.7795C1243.17 23.7795 1241.3 24.5521 1239.93 25.9273ZM1242.52 28.5201C1243.21 27.8324 1244.14 27.4461 1245.11 27.4461C1246.09 27.4461 1247.02 27.8324 1247.71 28.5201C1248.39 29.2077 1248.78 30.1403 1248.78 31.1128C1248.78 32.0853 1248.39 33.0179 1247.71 33.7055C1247.02 34.3932 1246.09 34.7795 1245.11 34.7795C1244.14 34.7795 1243.21 34.3932 1242.52 33.7055C1241.83 33.0179 1241.45 32.0853 1241.45 31.1128C1241.45 30.1403 1241.83 29.2077 1242.52 28.5201ZM1243.82 18.1492C1243.47 18.493 1243.28 18.9593 1243.28 19.4455C1243.28 19.9318 1243.47 20.3981 1243.82 20.7419C1244.16 21.0857 1244.63 21.2789 1245.11 21.2789C1245.6 21.2789 1246.07 21.0857 1246.41 20.7419C1246.75 20.3981 1246.95 19.9318 1246.95 19.4455C1246.95 18.9593 1246.75 18.493 1246.41 18.1492C1246.07 17.8054 1245.6 17.6122 1245.11 17.6122C1244.63 17.6122 1244.16 17.8054 1243.82 18.1492Z" fill="#F1836A"/>
</g>
<g opacity="0.35" clip-path="url(#clip4_5_481)">
<path fill-rule="evenodd" clip-rule="evenodd" d="M497.742 100.742C498.85 99.6336 500.016 98.5252 501.164 97.4699L502.528 96.2306L503.848 95.0587L505.093 93.971L506.242 92.9884C507.487 91.9205 509.069 91.3258 510.709 91.309C512.349 91.2921 513.942 91.8542 515.209 92.8964L515.812 93.3955L517.089 94.4779C518.402 95.6096 519.802 96.8749 521.076 98.1492C522.351 99.4235 523.616 100.824 524.748 102.137L525.83 103.414C526.003 103.62 526.168 103.82 526.329 104.017C527.371 105.283 527.934 106.877 527.916 108.518C527.899 110.158 527.304 111.74 526.236 112.985L525.255 114.129L524.168 115.377L522.995 116.698L521.756 118.061C520.689 119.225 519.598 120.366 518.484 121.484C517.366 122.598 516.225 123.689 515.061 124.756L513.697 125.995L512.378 127.167L511.131 128.253L509.983 129.237C508.738 130.305 507.157 130.9 505.517 130.917C503.877 130.934 502.283 130.371 501.016 129.329L500.414 128.83L499.137 127.748C497.763 126.573 496.433 125.348 495.149 124.076C493.875 122.802 492.61 121.402 491.478 120.089L490.395 118.812C490.223 118.606 490.057 118.406 489.896 118.209C488.854 116.943 488.292 115.35 488.309 113.71C488.325 112.07 488.92 110.488 489.987 109.243L490.968 108.096L492.056 106.85L493.229 105.529L494.469 104.166C495.536 103.002 496.627 101.86 497.742 100.742ZM502.376 110.562L508.664 116.849C509.263 117.448 510.284 117.173 510.505 116.357L512.806 107.768C512.856 107.582 512.856 107.385 512.806 107.198C512.756 107.011 512.658 106.841 512.521 106.704C512.385 106.568 512.214 106.469 512.027 106.419C511.841 106.37 511.644 106.37 511.457 106.42L502.87 108.722C502.684 108.772 502.514 108.871 502.377 109.007C502.24 109.144 502.142 109.314 502.092 109.501C502.042 109.687 502.042 109.884 502.093 110.07C502.143 110.257 502.241 110.427 502.378 110.563L502.376 110.562Z" fill="#F26D6E"/>
</g>
<g opacity="0.35" clip-path="url(#clip5_5_481)">
<path fill-rule="evenodd" clip-rule="evenodd" d="M31.9095 465.734C31.7175 464.167 31.0197 462.649 29.8163 461.446C26.9525 458.582 22.3092 458.582 19.4454 461.446C16.5816 464.309 16.5816 468.953 19.4454 471.816C20.6488 473.02 22.1664 473.718 23.7342 473.91L25.7127 481.294C25.3312 481.552 24.9687 481.85 24.6309 482.187C21.767 485.051 21.7671 489.694 24.6309 492.558C27.4947 495.422 32.1379 495.422 35.0018 492.558C36.9211 490.639 37.5541 487.92 36.9008 485.474L43.4736 478.901C45.9201 479.554 48.6387 478.921 50.5581 477.002C53.4219 474.138 53.4219 469.495 50.5581 466.631C47.6943 463.767 43.051 463.767 40.1872 466.631C39.8494 466.969 39.5515 467.331 39.2934 467.713L31.9095 465.734ZM38.0669 471.18L31.4233 469.4C31.0654 470.279 30.5297 471.103 29.8163 471.816C29.1029 472.53 28.2792 473.066 27.3999 473.423L29.1801 480.067C31.2628 479.887 33.4079 480.593 35.0018 482.187L40.1872 477.002C38.5934 475.408 37.8865 473.263 38.0669 471.18Z" fill="#F20B8B"/>
</g>
<g opacity="0.35" clip-path="url(#clip6_5_481)">
<path d="M1104.5 488.923C1104.87 488.379 1105.34 487.92 1105.9 487.574C1106.45 487.229 1107.07 487.006 1107.72 486.921C1108.37 486.836 1109.03 486.89 1109.65 487.08C1110.28 487.269 1110.85 487.591 1111.34 488.022L1111.56 488.225L1118.73 495.394C1119.59 496.254 1120.14 497.374 1120.29 498.58C1120.45 499.786 1120.2 501.009 1119.59 502.059L1119.42 502.335L1113.61 511.044C1113.25 511.587 1112.77 512.047 1112.22 512.392C1111.66 512.737 1111.04 512.96 1110.4 513.045C1109.75 513.131 1109.09 513.077 1108.46 512.887C1107.84 512.697 1107.26 512.376 1106.77 511.945L1106.56 511.741L1099.39 504.572C1098.53 503.713 1097.98 502.592 1097.82 501.387C1097.67 500.181 1097.91 498.957 1098.53 497.908L1098.7 497.632L1104.5 488.923ZM1095.69 489.183C1096.05 488.64 1096.53 488.18 1097.08 487.835C1097.64 487.49 1098.26 487.267 1098.91 487.182C1099.55 487.096 1100.21 487.15 1100.84 487.34C1101.46 487.53 1102.04 487.851 1102.53 488.282L1102.75 488.486L1102.92 488.657L1097.44 496.877C1096.53 498.234 1096.11 499.855 1096.23 501.482C1096.34 503.108 1097 504.649 1098.1 505.86L1098.35 506.131L1104.22 512.003C1103.4 512.825 1102.3 513.303 1101.14 513.342C1099.97 513.381 1098.84 512.978 1097.97 512.213L1097.74 512.002L1090.57 504.833C1089.71 503.973 1089.16 502.854 1089.01 501.648C1088.85 500.442 1089.1 499.219 1089.71 498.17L1089.89 497.892L1095.69 489.183ZM1086.62 489.183C1086.98 488.64 1087.45 488.18 1088.01 487.835C1088.56 487.49 1089.18 487.267 1089.83 487.182C1090.48 487.096 1091.14 487.15 1091.76 487.34C1092.39 487.529 1092.96 487.85 1093.45 488.281L1093.67 488.484L1093.84 488.656L1088.36 496.875C1087.45 498.232 1087.03 499.853 1087.15 501.48C1087.27 503.107 1087.93 504.648 1089.02 505.858L1089.28 506.129L1095.15 512.002C1094.33 512.823 1093.22 513.302 1092.06 513.341C1090.9 513.38 1089.77 512.976 1088.89 512.212L1088.67 512L1081.5 504.832C1080.64 503.972 1080.09 502.852 1079.93 501.647C1079.78 500.441 1080.02 499.218 1080.64 498.168L1080.81 497.891L1086.62 489.183Z" fill="#05DBF3"/>
</g>
<defs>
<clipPath id="clip0_5_481">
<rect width="44" height="44" fill="white" transform="translate(117 53.1128) rotate(-45)"/>
</clipPath>
<clipPath id="clip1_5_481">
<rect width="44" height="44" fill="white" transform="translate(857 233.113) rotate(-45)"/>
</clipPath>
<clipPath id="clip2_5_481">
<rect width="44" height="44" fill="white" transform="translate(415.113 368.226) rotate(-45)"/>
</clipPath>
<clipPath id="clip3_5_481">
<rect width="44" height="44" fill="white" transform="translate(1214 31.1128) rotate(-45)"/>
</clipPath>
<clipPath id="clip4_5_481">
<rect width="44" height="44" fill="white" transform="translate(477 111.113) rotate(-45)"/>
</clipPath>
<clipPath id="clip5_5_481">
<rect width="44" height="44" fill="white" transform="translate(0 473.113) rotate(-45)"/>
</clipPath>
<clipPath id="clip6_5_481">
<rect width="44" height="44" fill="white" transform="translate(1069 500.113) rotate(-45)"/>
</clipPath>
</defs>
</svg>
