<svg width="18" height="18" viewBox="0 0 18 18" fill="none" xmlns="http://www.w3.org/2000/svg">
<path fill-rule="evenodd" clip-rule="evenodd" d="M13 0C13.2652 0 13.5196 0.105357 13.7071 0.292893C13.8946 0.48043 14 0.734784 14 1V2H16C16.5304 2 17.0391 2.21071 17.4142 2.58579C17.7893 2.96086 18 3.46957 18 4V16C18 16.5304 17.7893 17.0391 17.4142 17.4142C17.0391 17.7893 16.5304 18 16 18H2C1.46957 18 0.960859 17.7893 0.585786 17.4142C0.210714 17.0391 0 16.5304 0 16V4C0 3.46957 0.210714 2.96086 0.585786 2.58579C0.960859 2.21071 1.46957 2 2 2H4V1C4 0.734784 4.10536 0.48043 4.29289 0.292893C4.48043 0.105357 4.73478 0 5 0C5.26522 0 5.51957 0.105357 5.70711 0.292893C5.89464 0.48043 6 0.734784 6 1V2H12V1C12 0.734784 12.1054 0.48043 12.2929 0.292893C12.4804 0.105357 12.7348 0 13 0ZM5.01 13H5C4.74512 13.0003 4.49997 13.0979 4.31463 13.2728C4.1293 13.4478 4.01777 13.687 4.00283 13.9414C3.98789 14.1958 4.07067 14.4464 4.23426 14.6418C4.39786 14.8373 4.6299 14.9629 4.883 14.993L5.01 15C5.27522 15 5.52957 14.8946 5.71711 14.7071C5.90464 14.5196 6.01 14.2652 6.01 14C6.01 13.7348 5.90464 13.4804 5.71711 13.2929C5.52957 13.1054 5.27522 13 5.01 13ZM9.01 13H9C8.74512 13.0003 8.49997 13.0979 8.31463 13.2728C8.1293 13.4478 8.01777 13.687 8.00283 13.9414C7.98789 14.1958 8.07067 14.4464 8.23426 14.6418C8.39785 14.8373 8.6299 14.9629 8.883 14.993L9.01 15C9.27522 15 9.52957 14.8946 9.71711 14.7071C9.90464 14.5196 10.01 14.2652 10.01 14C10.01 13.7348 9.90464 13.4804 9.71711 13.2929C9.52957 13.1054 9.27522 13 9.01 13ZM13.01 13H13C12.7451 13.0003 12.5 13.0979 12.3146 13.2728C12.1293 13.4478 12.0178 13.687 12.0028 13.9414C11.9879 14.1958 12.0707 14.4464 12.2343 14.6418C12.3979 14.8373 12.6299 14.9629 12.883 14.993L13.01 15C13.2752 15 13.5296 14.8946 13.7171 14.7071C13.9046 14.5196 14.01 14.2652 14.01 14C14.01 13.7348 13.9046 13.4804 13.7171 13.2929C13.5296 13.1054 13.2752 13 13.01 13ZM5.01 9H5C4.74512 9.00028 4.49997 9.09788 4.31463 9.27285C4.1293 9.44782 4.01777 9.68695 4.00283 9.94139C3.98789 10.1958 4.07067 10.4464 4.23426 10.6418C4.39786 10.8373 4.6299 10.9629 4.883 10.993L5.01 11C5.27522 11 5.52957 10.8946 5.71711 10.7071C5.90464 10.5196 6.01 10.2652 6.01 10C6.01 9.73478 5.90464 9.48043 5.71711 9.29289C5.52957 9.10536 5.27522 9 5.01 9ZM9.01 9H9C8.74512 9.00028 8.49997 9.09788 8.31463 9.27285C8.1293 9.44782 8.01777 9.68695 8.00283 9.94139C7.98789 10.1958 8.07067 10.4464 8.23426 10.6418C8.39785 10.8373 8.6299 10.9629 8.883 10.993L9.01 11C9.27522 11 9.52957 10.8946 9.71711 10.7071C9.90464 10.5196 10.01 10.2652 10.01 10C10.01 9.73478 9.90464 9.48043 9.71711 9.29289C9.52957 9.10536 9.27522 9 9.01 9ZM13.01 9H13C12.7451 9.00028 12.5 9.09788 12.3146 9.27285C12.1293 9.44782 12.0178 9.68695 12.0028 9.94139C11.9879 10.1958 12.0707 10.4464 12.2343 10.6418C12.3979 10.8373 12.6299 10.9629 12.883 10.993L13.01 11C13.2752 11 13.5296 10.8946 13.7171 10.7071C13.9046 10.5196 14.01 10.2652 14.01 10C14.01 9.73478 13.9046 9.48043 13.7171 9.29289C13.5296 9.10536 13.2752 9 13.01 9ZM16 4H2V6H16V4Z" fill="#51B3D8"/>
</svg>
