<?xml version="1.0" encoding="UTF-8"?>
<svg version="1.1" xmlns="http://www.w3.org/2000/svg" width="64" height="64">
<path d="M0 0 C3.00416683 0.05143036 5.98833665 -0.01983501 8.99145508 -0.1027832 C23.59313953 -0.19725655 23.59313953 -0.19725655 28.71264648 4.05102539 C31.4755071 6.91382185 33.53381541 9.79112089 35.0715332 13.48901367 C34.81078971 18.49914882 33.35759293 20.88296669 30.0715332 24.61401367 C26.82485196 28.41375734 23.68705061 32.23366364 20.6965332 36.23901367 C19.96305664 37.21870117 19.22958008 38.19838867 18.47387695 39.20776367 C16.67659675 41.63942253 14.9329635 44.10460365 13.20043945 46.58276367 C12.46736572 47.61771973 12.46736572 47.61771973 11.71948242 48.67358398 C10.76063512 50.02962681 9.81262424 51.39341041 8.87670898 52.76538086 C7.55200195 54.62963867 7.55200195 54.62963867 5.0715332 57.48901367 C3.7515332 57.48901367 2.4315332 57.48901367 1.0715332 57.48901367 C-0.87101976 55.30209497 -2.5103425 53.18684674 -4.1784668 50.80151367 C-5.23173416 49.34475666 -6.28650495 47.88908584 -7.3425293 46.43432617 C-8.19572754 45.2495166 -8.19572754 45.2495166 -9.06616211 44.04077148 C-12.48263309 39.35947171 -16.02676836 34.77498166 -19.5534668 30.17651367 C-20.92171205 28.38956266 -22.28897014 26.60185517 -23.6550293 24.81323242 C-24.53022217 23.66987427 -24.53022217 23.66987427 -25.4230957 22.50341797 C-28.95062245 17.78307687 -28.95062245 17.78307687 -28.75292969 15.15917969 C-24.13744196 0.21112245 -13.67544949 -0.29191889 0 0 Z M-13.9284668 4.48901367 C-12.6084668 7.12901367 -11.2884668 9.76901367 -9.9284668 12.48901367 C-8.77920414 11.53479559 -7.63416139 10.57549323 -6.4909668 9.61401367 C-5.53383789 8.81350586 -5.53383789 8.81350586 -4.55737305 7.99682617 C-2.82041675 6.56673797 -2.82041675 6.56673797 -1.9284668 4.48901367 C-5.8884668 4.48901367 -9.8484668 4.48901367 -13.9284668 4.48901367 Z M8.0715332 4.48901367 C8.9996582 5.64401367 9.9277832 6.79901367 10.8840332 7.98901367 C11.40610352 8.63870117 11.92817383 9.28838867 12.46606445 9.95776367 C14.06358153 11.83410495 14.06358153 11.83410495 17.0715332 11.48901367 C18.0615332 9.17901367 19.0515332 6.86901367 20.0715332 4.48901367 C16.1115332 4.48901367 12.1515332 4.48901367 8.0715332 4.48901367 Z M-17.9284668 5.48901367 C-18.93134208 6.79931799 -19.93069505 8.11231894 -20.9284668 9.42651367 C-21.4853418 10.15741211 -22.0422168 10.88831055 -22.6159668 11.64135742 C-24.02498625 13.24715736 -24.02498625 13.24715736 -23.9284668 14.48901367 C-20.2984668 14.48901367 -16.6684668 14.48901367 -12.9284668 14.48901367 C-14.45419885 10.67468354 -15.45593001 8.52349063 -17.9284668 5.48901367 Z M2.0715332 5.48901367 C0.73522084 6.79848047 -0.59744604 8.11166852 -1.9284668 9.42651367 C-2.6709668 10.15741211 -3.4134668 10.88831055 -4.1784668 11.64135742 C-6.04307671 13.1858752 -6.04307671 13.1858752 -5.9284668 14.48901367 C0.0115332 14.48901367 5.9515332 14.48901367 12.0715332 14.48901367 C10.7102832 12.81838867 10.7102832 12.81838867 9.3215332 11.11401367 C8.81106445 10.4875293 8.3005957 9.86104492 7.7746582 9.21557617 C5.98953839 7.40589049 4.39203676 6.48783912 2.0715332 5.48901367 Z M23.0715332 5.48901367 C22.4115332 6.60276367 21.7515332 7.71651367 21.0715332 8.86401367 C20.7002832 9.49049805 20.3290332 10.11698242 19.9465332 10.76245117 C18.92084972 12.46374034 18.92084972 12.46374034 19.0715332 14.48901367 C22.7015332 14.48901367 26.3315332 14.48901367 30.0715332 14.48901367 C28.10835147 10.95528655 26.0308244 8.24421582 23.0715332 5.48901367 Z M-23.9284668 17.48901367 C-19.77206901 23.93171928 -15.29928283 30.03255075 -10.5534668 36.05151367 C-9.91280273 36.86942383 -9.27213867 37.68733398 -8.61206055 38.5300293 C-7.05373354 40.51864063 -5.49252038 42.50490549 -3.9284668 44.48901367 C-2.73390756 40.90533598 -3.22539437 39.749936 -4.3269043 36.19995117 C-4.64143555 35.17643555 -4.9559668 34.15291992 -5.2800293 33.09838867 C-5.61776367 32.03104492 -5.95549805 30.96370117 -6.3034668 29.86401367 C-6.6334668 28.78893555 -6.9634668 27.71385742 -7.3034668 26.60620117 C-8.46062629 21.69194083 -8.46062629 21.69194083 -10.9284668 17.48901367 C-13.11486133 17.41642421 -15.30347069 17.40527585 -17.4909668 17.42651367 C-18.68850586 17.43553711 -19.88604492 17.44456055 -21.11987305 17.45385742 C-22.51012695 17.47125977 -22.51012695 17.47125977 -23.9284668 17.48901367 Z M-6.9284668 17.48901367 C-5.26135504 25.02570362 -5.26135504 25.02570362 -3.2019043 32.39916992 C-2.8925293 33.40786133 -2.5831543 34.41655273 -2.2644043 35.45581055 C-1.94729492 36.47739258 -1.63018555 37.49897461 -1.3034668 38.55151367 C-0.81620117 40.13609375 -0.81620117 40.13609375 -0.3190918 41.75268555 C0.47467793 44.33243715 1.27161034 46.91116475 2.0715332 49.48901367 C2.7315332 49.48901367 3.3915332 49.48901367 4.0715332 49.48901367 C5.35871734 45.4155932 6.6403071 41.34046797 7.91674805 37.26367188 C8.35173771 35.87712206 8.78825083 34.49104922 9.22631836 33.10546875 C9.85582461 31.11345975 10.4798271 29.11979808 11.1027832 27.12573242 C11.47983398 25.92650146 11.85688477 24.72727051 12.24536133 23.49169922 C13.20417613 20.52597384 13.20417613 20.52597384 13.0715332 17.48901367 C6.4715332 17.48901367 -0.1284668 17.48901367 -6.9284668 17.48901367 Z M17.0715332 17.48901367 C14.94578204 22.8593324 13.09571412 28.30679823 11.3215332 33.80151367 C11.08668213 34.50727539 10.85183105 35.21303711 10.60986328 35.94018555 C9.2207396 40.18107183 9.2207396 40.18107183 10.0715332 44.48901367 C22.36581353 31.78983997 22.36581353 31.78983997 30.0715332 17.48901367 C25.7815332 17.48901367 21.4915332 17.48901367 17.0715332 17.48901367 Z M-2.9284668 44.48901367 C-1.9284668 46.48901367 -1.9284668 46.48901367 -1.9284668 46.48901367 Z M8.0715332 44.48901367 C9.0715332 46.48901367 9.0715332 46.48901367 9.0715332 46.48901367 Z " fill="#000000" transform="translate(28.928466796875,2.510986328125)"/>
</svg>
