<svg width="24" height="24" viewBox="0 0 24 24" fill="none" xmlns="http://www.w3.org/2000/svg">
<g clip-path="url(#clip0_5_967)">
<path fill-rule="evenodd" clip-rule="evenodd" d="M13.232 1.36C13.864 0.601999 15.095 1.12 14.995 2.102L14.289 9H20C20.19 9.00007 20.3761 9.05428 20.5364 9.15627C20.6967 9.25826 20.8247 9.40382 20.9052 9.5759C20.9858 9.74798 21.0157 9.93946 20.9914 10.1279C20.9671 10.3164 20.8896 10.494 20.768 10.64L10.768 22.64C10.136 23.398 8.905 22.88 9.005 21.898L9.711 15H4C3.80999 14.9999 3.62392 14.9457 3.4636 14.8437C3.30328 14.7417 3.17534 14.5962 3.09476 14.4241C3.01417 14.252 2.98428 14.0605 3.00859 13.8721C3.0329 13.6836 3.11039 13.506 3.232 13.36L13.232 1.36Z" fill="#F5FFFF"/>
</g>
<defs>
<clipPath id="clip0_5_967">
<rect width="24" height="24" fill="white"/>
</clipPath>
</defs>
</svg>
