<svg width="44" height="44" viewBox="0 0 44 44" fill="none" xmlns="http://www.w3.org/2000/svg">
<path fill-rule="evenodd" clip-rule="evenodd" d="M9.16666 18.3334C9.16724 15.759 9.84543 13.2301 11.1331 11.0008C12.4207 8.77158 14.2724 6.92053 16.5021 5.63371C18.7318 4.34688 21.261 3.66962 23.8354 3.66998C26.4098 3.67034 28.9387 4.34832 31.1681 5.63577C33.3974 6.92322 35.2486 8.77478 36.5356 11.0044C37.8227 13.234 38.5001 15.7631 38.5 18.3375C38.4998 20.9119 37.8221 23.4409 36.5348 25.6703C35.2476 27.8998 33.3962 29.7512 31.1667 31.0384V37.5834C31.1667 38.3127 30.8769 39.0122 30.3612 39.5279C29.8455 40.0436 29.146 40.3334 28.4167 40.3334H21.0833C20.354 40.3334 19.6545 40.0436 19.1388 39.5279C18.6231 39.0122 18.3333 38.3127 18.3333 37.5834V34.8334H16.071C14.7304 34.8334 13.4359 34.3438 12.4308 33.4566C11.4258 32.5694 10.7794 31.3456 10.6132 30.0154L10.3565 27.9565L8.987 27.6834C8.58805 27.6035 8.2118 27.4361 7.88538 27.1932C7.55895 26.9503 7.29049 26.6381 7.09933 26.2789C6.90818 25.9197 6.7991 25.5226 6.77996 25.1162C6.76082 24.7098 6.8321 24.3042 6.98866 23.9287L9.17033 18.689C9.1677 18.5705 9.16647 18.4519 9.16666 18.3334Z" fill="#F1836A"/>
</svg>
