<svg width="24" height="24" viewBox="0 0 24 24" fill="none" xmlns="http://www.w3.org/2000/svg">
<path d="M8.667 2.56993C8.80811 2.52002 8.95863 2.50243 9.10745 2.51844C9.25627 2.53446 9.3996 2.58368 9.52686 2.66248C9.65412 2.74127 9.76207 2.84763 9.84275 2.97371C9.92343 3.09979 9.97477 3.24237 9.993 3.39093L10 3.51193V11.9999C9.99984 12.5045 10.1904 12.9905 10.5335 13.3605C10.8766 13.7305 11.3468 13.9571 11.85 13.9949L12 13.9999H20.488C20.648 13.9999 20.8056 14.0383 20.9476 14.1118C21.0897 14.1853 21.2121 14.2918 21.3044 14.4224C21.3968 14.553 21.4565 14.7038 21.4786 14.8623C21.5006 15.0207 21.4843 15.1821 21.431 15.3329C20.058 19.2159 16.356 21.9999 12 21.9999C6.477 21.9999 2 17.5229 2 11.9999C2 7.64393 4.784 3.94193 8.667 2.56993ZM12.989 2.05493L13.109 2.06093C15.3641 2.31316 17.4664 3.32453 19.0709 4.92904C20.6754 6.53355 21.6868 8.63587 21.939 10.8909C21.9678 11.1525 21.8923 11.4149 21.7288 11.6212C21.5654 11.8275 21.3272 11.9611 21.066 11.9929L20.946 11.9999H13C12.7551 11.9999 12.5187 11.91 12.3356 11.7472C12.1526 11.5845 12.0357 11.3602 12.007 11.1169L12 10.9999V3.05493C12 2.79161 12.1038 2.53891 12.289 2.35169C12.4742 2.16446 12.7257 2.05783 12.989 2.05493Z" fill="#F1836A"/>
</svg>
