<svg width="44" height="44" viewBox="0 0 44 44" fill="none" xmlns="http://www.w3.org/2000/svg">
<g clip-path="url(#clip0_5_949)">
<path d="M3.66663 16.3059C3.66663 14.8644 4.24609 13.4819 5.27754 12.4626C6.30899 11.4432 7.70794 10.8706 9.16663 10.8706H14.3971C14.9416 10.8706 15.2771 10.3108 15.0681 9.81433C14.9625 9.57029 14.8791 9.31746 14.8188 9.05883C14.212 6.36474 16.2708 3.62354 19.25 3.62354C22.231 3.62354 24.288 6.36474 23.6811 9.05883C23.6208 9.31745 23.5373 9.57027 23.4318 9.81433C23.221 10.3108 23.5583 10.8706 24.1028 10.8706H27.5C28.9587 10.8706 30.3576 11.4432 31.389 12.4626C32.4205 13.4819 33 14.8644 33 16.3059V19.6631C33 20.2012 33.5646 20.5327 34.0688 20.3262C34.3163 20.2247 34.5693 20.1378 34.8333 20.0798C37.5595 19.4801 40.3333 21.5129 40.3333 24.4588C40.3333 27.4048 37.5595 29.4376 34.8333 28.8379C34.5716 28.7783 34.3157 28.6958 34.0688 28.5915C33.5665 28.3831 33 28.7165 33 29.2546V34.4235C33 35.8651 32.4205 37.2476 31.389 38.2669C30.3576 39.2862 28.9587 39.8588 27.5 39.8588H24.0295C23.5015 39.8588 23.1623 39.3316 23.3145 38.8334C23.3896 38.5797 23.4465 38.3188 23.4703 38.0471C23.519 37.4701 23.4461 36.8895 23.2561 36.3418C23.0661 35.7942 22.7632 35.2914 22.3666 34.8654C21.9699 34.4393 21.4881 34.0993 20.9517 33.8666C20.4152 33.634 19.8358 33.5139 19.25 33.5139C18.6641 33.5139 18.0847 33.634 17.5482 33.8666C17.0118 34.0993 16.53 34.4393 16.1333 34.8654C15.7367 35.2914 15.4338 35.7942 15.2438 36.3418C15.0539 36.8895 14.9809 37.4701 15.0296 38.0471C15.0535 38.3188 15.1103 38.5797 15.1873 38.8334C15.3376 39.3316 14.9985 39.8588 14.4723 39.8588H9.16663C7.70794 39.8588 6.30899 39.2862 5.27754 38.2669C4.24609 37.2476 3.66663 35.8651 3.66663 34.4235V29.1821C3.66663 28.6603 4.20013 28.3251 4.70429 28.4755C4.96096 28.5498 5.22496 28.606 5.49996 28.6295C6.08376 28.6777 6.67132 28.6056 7.22549 28.4178C7.77965 28.2301 8.28838 27.9308 8.7195 27.5388C9.15062 27.1468 9.49477 26.6707 9.73017 26.1405C9.96557 25.6104 10.0871 25.0378 10.0871 24.4588C10.0871 23.8799 9.96557 23.3073 9.73017 22.7771C9.49477 22.247 9.15062 21.7709 8.7195 21.3789C8.28838 20.9869 7.77965 20.6876 7.22549 20.4998C6.67132 20.3121 6.08376 20.24 5.49996 20.2881C5.22496 20.3117 4.96096 20.3679 4.70429 20.444C4.20013 20.5925 3.66663 20.2573 3.66663 19.7374V16.3059Z" fill="#6863BF"/>
</g>
<defs>
<clipPath id="clip0_5_949">
<rect width="44" height="43.4824" fill="white"/>
</clipPath>
</defs>
</svg>
