<svg width="1440" height="366" viewBox="0 0 1440 366" fill="none" xmlns="http://www.w3.org/2000/svg">
<rect width="1440" height="363" fill="#F5FFFF"/>
<g opacity="0.25" clip-path="url(#clip0_0_1)">
<path fill-rule="evenodd" clip-rule="evenodd" d="M60.0246 102.876C60.5906 102.55 61.2565 102.443 61.8961 102.576C62.5357 102.708 63.1045 103.07 63.4947 103.594L63.6666 103.855L64.9982 106.166C65.3369 106.755 65.4379 107.451 65.2804 108.112C65.1229 108.774 64.7189 109.35 64.1509 109.723C63.583 110.096 62.8939 110.239 62.2245 110.121C61.5551 110.003 60.9559 109.634 60.5493 109.09L60.3773 108.829L59.0458 106.518C58.6926 105.906 58.5974 105.178 58.7809 104.495C58.9645 103.812 59.4119 103.229 60.0246 102.876ZM45.8583 104.731C46.5412 104.915 47.1231 105.362 47.4762 105.975C47.8293 106.587 47.9246 107.315 47.7412 107.998L47.0491 110.573C46.9631 110.916 46.8096 111.239 46.5975 111.523C46.3854 111.806 46.119 112.045 45.8138 112.224C45.5085 112.404 45.1706 112.521 44.8197 112.568C44.4688 112.616 44.112 112.593 43.77 112.501C43.4281 112.409 43.1078 112.25 42.828 112.033C42.5482 111.816 42.3144 111.545 42.1403 111.237C41.9661 110.929 41.8551 110.589 41.8138 110.237C41.7724 109.885 41.8015 109.529 41.8993 109.189L42.5914 106.614C42.775 105.931 43.2224 105.349 43.835 104.996C44.4476 104.643 45.1754 104.548 45.8583 104.731ZM71.9985 89.6659L74.5734 90.358C75.2454 90.5512 75.8146 91.0006 76.1585 91.6094C76.5024 92.2182 76.5934 92.9377 76.4119 93.613C76.2304 94.2883 75.7909 94.8652 75.1882 95.2196C74.5854 95.574 73.8676 95.6775 73.1893 95.5077L70.6144 94.8157C69.9424 94.6225 69.3732 94.1731 69.0293 93.5642C68.6854 92.9554 68.5945 92.2359 68.7759 91.5606C68.9574 90.8854 69.3969 90.3084 69.9996 89.9541C70.6024 89.5997 71.3202 89.4962 71.9985 89.6659ZM38.8138 62.7775C39.9401 62.128 41.2649 61.9123 42.539 62.171C43.8132 62.4297 44.949 63.1449 45.7329 64.1822L50.6587 70.6999C54.1856 70.6904 57.6168 71.8465 60.4188 73.9884C63.2208 76.1304 65.2365 79.1381 66.1526 82.5439C67.0687 85.9497 66.8338 89.5628 65.4844 92.8214C64.1351 96.0799 61.7468 98.8013 58.6911 100.562C55.6354 102.323 52.0834 103.026 48.5874 102.56C45.0915 102.093 41.8474 100.485 39.3598 97.9852C36.8722 95.4851 35.2803 92.2331 34.8317 88.7348C34.3831 85.2366 35.103 81.6882 36.8793 78.6413L33.7094 71.1116C33.2049 69.9133 33.1554 68.572 33.5704 67.3399C33.9854 66.1077 34.8361 65.0695 35.9627 64.4206L38.8138 62.7775ZM45.3776 77.4616C42.9265 78.8742 41.137 81.2026 40.4027 83.9346C39.6684 86.6666 40.0495 89.5785 41.4621 92.0295C42.8747 94.4806 45.2031 96.2701 47.9351 97.0044C50.6671 97.7387 53.5789 97.3576 56.03 95.945C58.481 94.5324 60.2706 92.204 61.0049 89.472C61.7392 86.74 61.3581 83.8281 59.9455 81.3771C58.5329 78.926 56.2045 77.1365 53.4725 76.4022C50.7404 75.6679 47.8286 76.049 45.3776 77.4616ZM30.8888 95.0453C31.5016 94.6921 32.2295 94.5969 32.9125 94.7805C33.5955 94.964 34.1776 95.4114 34.5308 96.0242C34.8839 96.6369 34.9792 97.3649 34.7956 98.0479C34.612 98.7309 34.1647 99.313 33.5519 99.6662L31.2415 100.998C30.6287 101.351 29.9008 101.446 29.2177 101.263C28.5347 101.079 27.9526 100.632 27.5995 100.019C27.2463 99.4061 27.1511 98.6781 27.3346 97.9951C27.5182 97.3121 27.9656 96.73 28.5784 96.3768L30.8888 95.0453ZM70.1661 72.4089C70.7788 72.0557 71.5068 71.9605 72.1898 72.144C72.8728 72.3276 73.4549 72.775 73.8081 73.3878C74.1612 74.0005 74.2565 74.7285 74.0729 75.4115C73.8893 76.0945 73.4419 76.6766 72.8292 77.0297L70.5188 78.3613C69.906 78.7144 69.178 78.8097 68.495 78.6261C67.812 78.4426 67.2299 77.9952 66.8768 77.3824C66.5236 76.7697 66.4284 76.0417 66.6119 75.3587C66.7955 74.6757 67.2429 74.0936 67.8556 73.7404L70.1661 72.4089ZM57.6267 60.9532C58.3096 61.1368 58.8915 61.5841 59.2446 62.1968C59.5977 62.8094 59.693 63.5372 59.5095 64.2201L58.8175 66.795C58.7315 67.1385 58.578 67.4614 58.3659 67.745C58.1538 68.0285 57.8874 68.267 57.5821 68.4464C57.2769 68.6259 56.939 68.7428 56.5881 68.7903C56.2372 68.8377 55.8804 68.8149 55.5384 68.7229C55.1964 68.631 54.8762 68.4719 54.5964 68.255C54.3166 68.038 54.0828 67.7674 53.9087 67.4591C53.7345 67.1508 53.6235 66.8109 53.5822 66.4592C53.5408 66.1075 53.5699 65.7512 53.6677 65.4109L54.3598 62.836C54.5434 62.1531 54.9908 61.5712 55.6034 61.2181C56.216 60.865 56.9438 60.7697 57.6267 60.9532ZM28.2196 77.9012L30.7945 78.5932C31.4572 78.7944 32.0157 79.2455 32.3517 79.8511C32.6877 80.4567 32.775 81.1692 32.595 81.838C32.415 82.5068 31.9819 83.0793 31.3872 83.4344C30.7926 83.7895 30.0832 83.8994 29.409 83.7407L26.8341 83.0486C26.1714 82.8475 25.613 82.3964 25.2769 81.7908C24.9409 81.1852 24.8536 80.4726 25.0336 79.8038C25.2136 79.1351 25.6468 78.5625 26.2414 78.2074C26.836 77.8523 27.5454 77.7425 28.2196 77.9012ZM41.4769 67.3983L38.6258 69.0414L40.7113 73.9952L44.7176 71.6863L41.4769 67.3983Z" fill="#51B3D8"/>
</g>
<g opacity="0.25" clip-path="url(#clip1_0_1)">
<path fill-rule="evenodd" clip-rule="evenodd" d="M1397.25 288.061C1399.8 286.81 1402.42 289.611 1401.01 292.073L1391.08 309.36L1406.08 316.045C1406.58 316.268 1407 316.628 1407.3 317.083C1407.6 317.539 1407.77 318.071 1407.78 318.617C1407.79 319.163 1407.64 319.701 1407.36 320.167C1407.08 320.634 1406.66 321.01 1406.17 321.251L1365.87 341.055C1363.32 342.306 1360.69 339.505 1362.11 337.043L1372.04 319.756L1357.04 313.071C1356.54 312.848 1356.12 312.488 1355.81 312.032C1355.51 311.577 1355.35 311.045 1355.34 310.499C1355.33 309.953 1355.47 309.415 1355.76 308.948C1356.04 308.482 1356.45 308.106 1356.94 307.865L1397.25 288.061ZM1364.99 310.318L1379.03 316.579C1379.18 316.644 1379.31 316.74 1379.42 316.859C1379.52 316.978 1379.6 317.119 1379.65 317.272C1379.7 317.424 1379.72 317.586 1379.71 317.746C1379.69 317.906 1379.64 318.06 1379.56 318.2L1371.78 331.745L1398.13 318.798L1384.09 312.537C1383.94 312.472 1383.81 312.376 1383.7 312.257C1383.59 312.138 1383.51 311.997 1383.46 311.844C1383.41 311.691 1383.39 311.53 1383.41 311.37C1383.43 311.21 1383.48 311.055 1383.56 310.916L1391.33 297.373L1364.99 310.318Z" fill="#51B3D8"/>
</g>
<g opacity="0.25" clip-path="url(#clip2_0_1)">
<path fill-rule="evenodd" clip-rule="evenodd" d="M1123.93 20.7158C1123.44 20.8829 1123.01 21.171 1122.67 21.5528C1122.33 21.9346 1122.09 22.3973 1121.98 22.8971C1121.86 23.3969 1121.88 23.9171 1122.03 24.4084C1122.17 24.8996 1122.44 25.3456 1122.81 25.704L1123.34 26.2226C1123.6 26.4825 1123.8 26.8061 1123.9 27.1627C1124.01 27.5192 1124.02 27.8969 1123.94 28.2596C1123.86 28.6224 1123.69 28.9582 1123.44 29.235C1123.19 29.5119 1122.87 29.7206 1122.52 29.8413L1115.98 32.1004C1115.47 32.2771 1115.05 32.65 1114.81 33.1369C1114.57 33.6237 1114.54 34.1848 1114.72 34.6966L1115.51 37.0009C1118.95 35.5777 1123.15 37.2371 1124.47 41.0486C1125.79 44.86 1123.5 48.7585 1119.92 49.761L1121.38 53.9951C1121.56 54.507 1121.93 54.9276 1122.42 55.1646C1122.9 55.4015 1123.47 55.4353 1123.98 55.2586L1128.21 53.7965C1126.79 50.3568 1128.45 46.155 1132.26 44.8389C1136.07 43.5228 1139.97 45.8053 1140.97 49.3903L1143.28 48.5946C1143.79 48.4178 1144.21 48.045 1144.45 47.5581C1144.68 47.0712 1144.72 46.5102 1144.54 45.9983L1142.28 39.4561C1141.75 37.9238 1143.02 36.3716 1144.62 36.5816L1145.36 36.6803C1145.87 36.7469 1146.38 36.6827 1146.86 36.4938C1147.33 36.3048 1147.75 35.9973 1148.08 35.6006C1148.4 35.2038 1148.62 34.7308 1148.71 34.2266C1148.8 33.7224 1148.76 33.2036 1148.59 32.7196C1148.42 32.2355 1148.14 31.8022 1147.75 31.4607C1147.37 31.1192 1146.91 30.881 1146.41 30.7685C1145.91 30.6561 1145.39 30.6732 1144.9 30.8182C1144.41 30.9632 1143.96 31.2313 1143.6 31.5971L1143.09 32.1275C1142.83 32.3935 1142.5 32.5885 1142.15 32.694C1141.79 32.7995 1141.41 32.812 1141.05 32.7303C1140.69 32.6486 1140.35 32.4753 1140.07 32.2271C1139.8 31.9789 1139.59 31.6639 1139.47 31.3122L1137.88 26.6998C1137.7 26.188 1137.33 25.7674 1136.84 25.5304C1136.35 25.2935 1135.79 25.2597 1135.28 25.4364L1130.67 27.0291C1129.13 27.5582 1127.58 26.2907 1127.79 24.6846L1127.89 23.9487C1127.96 23.4409 1127.89 22.9243 1127.7 22.4481C1127.52 21.972 1127.21 21.552 1126.81 21.2281C1126.41 20.9042 1125.94 20.6871 1125.44 20.5974C1124.93 20.5078 1124.41 20.5485 1123.93 20.7158ZM1118.63 26.8653C1116.68 23.1833 1118.34 18.3262 1122.6 16.8561C1126.85 15.3867 1131.16 18.1827 1131.89 22.2858L1133.95 21.5767C1135.48 21.0465 1137.16 21.1479 1138.63 21.8588C1140.09 22.5696 1141.2 23.8316 1141.73 25.3671L1142.44 27.4204C1146.13 25.4664 1150.98 27.1285 1152.45 31.3858C1153.92 35.6411 1151.13 39.948 1147.02 40.6823L1148.4 44.6655C1148.93 46.201 1148.83 47.8842 1148.12 49.3449C1147.41 50.8056 1146.14 51.9241 1144.61 52.4543L1139.96 54.0583C1139.62 54.1758 1139.26 54.2073 1138.91 54.1498C1138.55 54.0923 1138.22 53.9478 1137.93 53.7291C1137.65 53.5104 1137.42 53.2244 1137.28 52.8968C1137.13 52.5693 1137.07 52.2104 1137.09 51.8525L1137.13 51.4157C1137.16 50.9749 1137.08 50.5329 1136.9 50.1295C1136.72 49.7261 1136.44 49.3739 1136.09 49.1044C1135.74 48.8349 1135.33 48.6566 1134.89 48.5856C1134.46 48.5145 1134.01 48.5528 1133.59 48.697C1133.17 48.8413 1132.8 49.0871 1132.5 49.4122C1132.2 49.7374 1131.99 50.1317 1131.88 50.56C1131.77 50.9883 1131.76 51.437 1131.87 51.866C1131.98 52.2949 1132.19 52.6907 1132.49 53.0177L1132.78 53.3432C1133.83 54.4942 1133.36 56.34 1131.89 56.8478L1125.31 59.1183C1123.77 59.6485 1122.09 59.547 1120.63 58.8362C1119.17 58.1254 1118.05 56.8634 1117.52 55.3279L1115.25 48.7529C1114.74 47.2824 1115.9 45.7713 1117.46 45.8831L1117.89 45.9159C1118.33 45.9481 1118.78 45.8703 1119.18 45.6896C1119.58 45.5089 1119.94 45.2309 1120.2 44.8805C1120.47 44.5301 1120.65 44.1183 1120.72 43.682C1120.79 43.2457 1120.76 42.7986 1120.61 42.3808C1120.47 41.963 1120.22 41.5875 1119.9 41.2881C1119.57 40.9886 1119.18 40.7746 1118.75 40.6651C1118.32 40.5557 1117.87 40.5542 1117.44 40.661C1117.01 40.7677 1116.62 40.9792 1116.29 41.2765L1115.97 41.5725C1114.82 42.618 1112.97 42.1451 1112.46 40.6746L1110.86 36.0294C1110.33 34.494 1110.43 32.8107 1111.14 31.3501C1111.85 29.8894 1113.11 28.7709 1114.65 28.2407L1118.63 26.8653Z" fill="#51B3D8"/>
</g>
<circle cx="-12.5" cy="289.5" r="55.5" fill="#51B3D8"/>
<circle cx="1439.5" cy="75.5" r="54.5" stroke="#51B3D8" stroke-width="2"/>
<g opacity="0.25" clip-path="url(#clip3_0_1)">
<path fill-rule="evenodd" clip-rule="evenodd" d="M162.28 296.755C163.276 294.882 164.975 293.481 167.004 292.86C169.033 292.24 171.225 292.451 173.099 293.447L191.936 303.461C193.809 304.456 195.21 306.156 195.831 308.185C196.451 310.214 196.241 312.406 195.245 314.28L177.72 347.244C176.724 349.118 175.025 350.519 172.996 351.139C170.967 351.76 168.775 351.549 166.901 350.553L148.064 340.539C146.191 339.543 144.79 337.844 144.169 335.815C143.549 333.786 143.76 331.594 144.756 329.72L162.28 296.755ZM170.595 298.156C169.971 297.824 169.24 297.754 168.564 297.96C167.888 298.167 167.321 298.634 166.989 299.259L149.465 332.224C149.133 332.848 149.063 333.579 149.269 334.255C149.476 334.931 149.943 335.498 150.568 335.83L169.405 345.844C170.029 346.176 170.76 346.246 171.436 346.039C172.113 345.832 172.679 345.365 173.011 344.741L190.535 311.776C190.867 311.152 190.938 310.421 190.731 309.745C190.524 309.068 190.057 308.502 189.432 308.17L170.595 298.156ZM171.624 304.743C171.956 304.118 172.522 303.651 173.199 303.444C173.875 303.238 174.606 303.308 175.23 303.64L182.294 307.395C182.919 307.727 183.386 308.293 183.593 308.97C183.799 309.646 183.729 310.377 183.397 311.001C183.065 311.626 182.499 312.093 181.822 312.3C181.146 312.507 180.415 312.436 179.791 312.104L172.727 308.349C172.102 308.017 171.635 307.451 171.428 306.774C171.222 306.098 171.292 305.367 171.624 304.743ZM159.584 333.073C160.082 332.136 160.931 331.435 161.946 331.125C162.96 330.815 164.056 330.92 164.993 331.418C165.93 331.916 166.63 332.766 166.941 333.78C167.251 334.795 167.145 335.891 166.647 336.828C166.149 337.765 165.3 338.465 164.285 338.775C163.271 339.086 162.175 338.98 161.238 338.482C160.301 337.984 159.601 337.135 159.29 336.12C158.98 335.106 159.086 334.009 159.584 333.073Z" fill="#51B3D8"/>
</g>
<defs>
<clipPath id="clip0_0_1">
<rect width="64" height="64" fill="white" transform="translate(7 74.957) rotate(-29.9558)"/>
</clipPath>
<clipPath id="clip1_0_1">
<rect width="69" height="69" fill="white" transform="translate(1364.09 269) rotate(24.027)"/>
</clipPath>
<clipPath id="clip2_0_1">
<rect width="49" height="49" fill="white" transform="translate(1101 19.9937) rotate(-19.0504)"/>
</clipPath>
<clipPath id="clip3_0_1">
<rect width="64" height="64" fill="white" transform="translate(156.765 278.724) rotate(27.9954)"/>
</clipPath>
</defs>
</svg>
