<?xml version="1.0" encoding="UTF-8"?>
<svg version="1.1" xmlns="http://www.w3.org/2000/svg" width="64" height="64">
<path d="M0 0 C2.42578125 0.015625 2.42578125 0.015625 5 1 C6.73046875 3.546875 6.73046875 3.546875 8.1875 6.75 C8.92033203 8.32007813 8.92033203 8.32007813 9.66796875 9.921875 C11 13 11 13 11.546875 15.78125 C12.77279764 18.15860586 12.77279764 18.15860586 15.01293945 18.65332031 C17.6932535 19.13796136 20.35331978 19.46915893 23.0625 19.75 C24.90790973 19.97099194 26.75298546 20.19479749 28.59765625 20.421875 C29.41758057 20.51049805 30.23750488 20.59912109 31.08227539 20.69042969 C33 21 33 21 34 22 C34.5 24.125 34.5 24.125 34 27 C31.48352787 30.18559188 28.5270075 32.96683322 25.1640625 35.2421875 C23.23195808 36.47203121 23.23195808 36.47203121 21 39 C20.64374163 42.12998425 21.31201913 44.94854742 22 48 C22.40539868 49.95637557 22.80115876 51.91477197 23.1875 53.875 C23.48720703 55.23238281 23.48720703 55.23238281 23.79296875 56.6171875 C24 59 24 59 22 62 C15.56329162 61.85696204 11.79652077 59.13042909 6.6484375 55.3984375 C4.13614898 53.79495205 4.13614898 53.79495205 1.5390625 54.06640625 C-2.6830645 55.61884987 -6.27815768 58.10490353 -10.0625 60.50390625 C-13.0650989 62.03315542 -14.69453692 62.33419204 -18 62 C-20.25565214 57.65097284 -19.89897941 55.16036914 -18.625 50.5 C-16.88398243 44.79956529 -16.88398243 44.79956529 -17 39 C-18.94086281 36.73192118 -21.19523096 34.88789813 -23.5 33 C-29.89202658 27.7641196 -29.89202658 27.7641196 -30.40625 24.125 C-30.2721875 23.42375 -30.138125 22.7225 -30 22 C-25.3386352 20.17567541 -21.53331613 19.94622971 -16.5625 19.875 C-13.5663108 19.67045703 -11.91239673 19.16115164 -9 18 C-6.02232818 14.38813403 -4.64315837 10.01846572 -3.19921875 5.625 C-2 2 -2 2 0 0 Z M1 8 C0.57847656 8.99902344 0.15695313 9.99804688 -0.27734375 11.02734375 C-0.83060217 12.33078308 -1.38399451 13.63416557 -1.9375 14.9375 C-2.21529297 15.59685547 -2.49308594 16.25621094 -2.77929688 16.93554688 C-4.88671875 21.88671875 -4.88671875 21.88671875 -6 23 C-7.33802186 23.22513101 -8.68573023 23.39360807 -10.03515625 23.53515625 C-10.84404297 23.62216797 -11.65292969 23.70917969 -12.48632812 23.79882812 C-13.7615332 23.9293457 -13.7615332 23.9293457 -15.0625 24.0625 C-15.91650391 24.15337891 -16.77050781 24.24425781 -17.65039062 24.33789062 C-19.76651535 24.56250722 -21.88320894 24.78175227 -24 25 C-20.65058657 28.41871163 -17.2467288 31.4720684 -13.453125 34.375 C-11.45241686 36.61235104 -11.22161206 38.00196514 -11 41 C-11.3943439 43.66113189 -11.84947585 46.19766921 -12.4375 48.8125 C-12.58509766 49.50537109 -12.73269531 50.19824219 -12.88476562 50.91210938 C-13.24775612 52.60996815 -13.62268223 54.30526763 -14 56 C-13.05898438 55.41089844 -12.11796875 54.82179687 -11.1484375 54.21484375 C-9.89115812 53.45484651 -8.63331543 52.69578063 -7.375 51.9375 C-6.75753906 51.54755859 -6.14007812 51.15761719 -5.50390625 50.75585938 C-2.41627308 48.91953017 -0.5935495 47.99394337 3.0625 48.03125 C6.48660464 49.160476 9.29930247 50.68290707 12.375 52.5625 C13.96441406 53.52349609 13.96441406 53.52349609 15.5859375 54.50390625 C16.38257813 54.99761719 17.17921875 55.49132813 18 56 C17.65775391 54.46279297 17.65775391 54.46279297 17.30859375 52.89453125 C17.0177139 51.53396422 16.72737796 50.17328084 16.4375 48.8125 C16.21030273 47.80219727 16.21030273 47.80219727 15.97851562 46.77148438 C14.48611075 39.65653089 14.48611075 39.65653089 16 36 C17.99227797 34.06774762 19.87471405 32.42021831 22.0625 30.75 C24.05692773 29.18343474 26.03336172 27.60178684 28 26 C28 25.67 28 25.34 28 25 C26.13794922 24.95746094 26.13794922 24.95746094 24.23828125 24.9140625 C11.31567597 24.28353031 11.31567597 24.28353031 7.76171875 20.81640625 C6.51279729 18.21416433 5.70399206 15.79501609 5 13 C4.35173595 11.32608962 3.6901945 9.65706179 3 8 C2.34 8 1.68 8 1 8 Z " fill="#000000" transform="translate(30,1)"/>
</svg>
