<svg width="38" height="32" viewBox="0 0 38 32" fill="none" xmlns="http://www.w3.org/2000/svg">
<path fill-rule="evenodd" clip-rule="evenodd" d="M14.8413 0C13.3652 0 11.9496 0.579463 10.9059 1.61091C9.86216 2.64236 9.27579 4.04131 9.27579 5.5H3.71032C2.72628 5.5 1.78255 5.88631 1.08673 6.57394C0.390907 7.26158 0 8.19421 0 9.16667V27.5C0 28.4725 0.390907 29.4051 1.08673 30.0927C1.78255 30.7804 2.72628 31.1667 3.71032 31.1667H33.3929C34.3769 31.1667 35.3206 30.7804 36.0165 30.0927C36.7123 29.4051 37.1032 28.4725 37.1032 27.5V9.16667C37.1032 8.19421 36.7123 7.26158 36.0165 6.57394C35.3206 5.88631 34.3769 5.5 33.3929 5.5H27.8274C27.8274 4.04131 27.241 2.64236 26.1973 1.61091C25.1536 0.579463 23.738 0 22.2619 0H14.8413ZM14.8413 3.66667C14.3493 3.66667 13.8774 3.85982 13.5295 4.20364C13.1816 4.54745 12.9861 5.01377 12.9861 5.5H24.1171C24.1171 5.01377 23.9216 4.54745 23.5737 4.20364C23.2258 3.85982 22.7539 3.66667 22.2619 3.66667H14.8413ZM3.71032 16.5C3.2183 16.5 2.74643 16.6932 2.39852 17.037C2.05061 17.3808 1.85516 17.8471 1.85516 18.3333C1.85516 18.8196 2.05061 19.2859 2.39852 19.6297C2.74643 19.9735 3.2183 20.1667 3.71032 20.1667H33.3929C33.8849 20.1667 34.3568 19.9735 34.7047 19.6297C35.0526 19.2859 35.248 18.8196 35.248 18.3333C35.248 17.8471 35.0526 17.3808 34.7047 17.037C34.3568 16.6932 33.8849 16.5 33.3929 16.5H3.71032Z" fill="#51B3D8"/>
</svg>
